# xmcd CD database file
#
# Track frame offsets:
#	154
#	14005
#	27248
#	42862
#	62894
#	87856
#	116154
#	129614
#	142853
#	155945
#	172074
#	190037
#	201971
#	227857
#	247476
#	272569
#
# Disc length: 3923 seconds
#
# Revision: 0
# Processed by: cddbd v1.4PL0 Copyright (c) Steve Scherf et al.
# Submitted via: CDex 1.50beta10
#
DISCID=f10f5110
DTITLE=Varios - Salsa Saoko
DYEAR=2000
DGENRE=Salsa
TTITLE0=Joe Quijano - La Pachanga Se Baila Asi
TTITLE1=Mon Rivera - Lluvia Con Nieve
TTITLE2=Orq De Cupe - Inferidius
TTITLE3=Javier Vasquez - Siguelo
TTITLE4=Wayne Gordea - Estamos En Salsa
TTITLE5=Jhony Pacheco - Merecumbe
TTITLE6=Joe Pastrana - Cachondea
TTITLE7=New Swing - Tiroteo
TTITLE8=Jovenes De Hierro - Ritmo Sabroso
TTITLE9=Alfredito Linares - Tihuanaco
TTITLE10=Richie Ray - Yo Soy Babaloo
TTITLE11=Joe Quijano - Moliendo Cafe
TTITLE12=Joe Pastrana - Moliendo Cafe
TTITLE13=Ricardo Lemu - Mambo Yoyo
TTITLE14=Cortijo Rivera - Volare
TTITLE15=Hector Lavoe - Ella Mintio
EXTD=YEAR: 2000
EXTT0=
EXTT1=
EXTT2=
EXTT3=
EXTT4=
EXTT5=
EXTT6=
EXTT7=
EXTT8=
EXTT9=
EXTT10=
EXTT11=
EXTT12=
EXTT13=
EXTT14=
EXTT15=
PLAYORDER=
